<?xml version="1.0" standalone="no"?><svg xmlns="http://www.w3.org/2000/svg" viewBox="0 0 1440 320"><path fill="#854fee" fill-opacity="1" d="M0,288L8.9,261.3C17.8,235,36,181,53,170.7C71.1,160,89,192,107,170.7C124.4,149,142,75,160,42.7C177.8,11,196,21,213,48C231.1,75,249,117,267,154.7C284.4,192,302,224,320,208C337.8,192,356,128,373,133.3C391.1,139,409,213,427,245.3C444.4,277,462,267,480,250.7C497.8,235,516,213,533,224C551.1,235,569,277,587,277.3C604.4,277,622,235,640,208C657.8,181,676,171,693,144C711.1,117,729,75,747,90.7C764.4,107,782,181,800,192C817.8,203,836,149,853,154.7C871.1,160,889,224,907,229.3C924.4,235,942,181,960,149.3C977.8,117,996,107,1013,138.7C1031.1,171,1049,245,1067,250.7C1084.4,256,1102,192,1120,138.7C1137.8,85,1156,43,1173,32C1191.1,21,1209,43,1227,42.7C1244.4,43,1262,21,1280,53.3C1297.8,85,1316,171,1333,208C1351.1,245,1369,235,1387,240C1404.4,245,1422,267,1431,277.3L1440,288L1440,320L1431.1,320C1422.2,320,1404,320,1387,320C1368.9,320,1351,320,1333,320C1315.6,320,1298,320,1280,320C1262.2,320,1244,320,1227,320C1208.9,320,1191,320,1173,320C1155.6,320,1138,320,1120,320C1102.2,320,1084,320,1067,320C1048.9,320,1031,320,1013,320C995.6,320,978,320,960,320C942.2,320,924,320,907,320C888.9,320,871,320,853,320C835.6,320,818,320,800,320C782.2,320,764,320,747,320C728.9,320,711,320,693,320C675.6,320,658,320,640,320C622.2,320,604,320,587,320C568.9,320,551,320,533,320C515.6,320,498,320,480,320C462.2,320,444,320,427,320C408.9,320,391,320,373,320C355.6,320,338,320,320,320C302.2,320,284,320,267,320C248.9,320,231,320,213,320C195.6,320,178,320,160,320C142.2,320,124,320,107,320C88.9,320,71,320,53,320C35.6,320,18,320,9,320L0,320Z"></path></svg>